<svg xmlns="http://www.w3.org/2000/svg" viewBox="0 0 128 161.25">
  <path d="M68.122 65.235c-10.928 7.652-13.587 22.736-5.935 33.663 7.651 10.928 22.735 13.588 33.663 5.936 10.927-7.652 13.586-22.735 5.935-33.663-7.652-10.927-22.735-13.587-33.663-5.936Zm2.868 4.096c8.667-6.069 20.63-3.96 26.7 4.708 6.068 8.667 3.959 20.63-4.708 26.7-8.667 6.068-20.631 3.958-26.7-4.708-6.068-8.668-3.959-20.631 4.708-26.7Z"/>
  <path d="m92.94 105.035 2.562 3.659a2.501 2.501 0 0 0 4.096-2.868l-2.563-3.66a2.501 2.501 0 0 0-4.095 2.869Z"/>
  <path d="M106.767 108.627a8.556 8.556 0 0 0-8.986-3.417 3.702 3.702 0 0 0-2.236 1.565 8.556 8.556 0 0 0 .138 9.613l5.468 7.81a6.765 6.765 0 0 0 9.42 1.661l.003-.001a6.765 6.765 0 0 0 1.662-9.421l-5.469-7.81Zm-4.096 2.868a3.556 3.556 0 0 0-3.209-1.504 3.557 3.557 0 0 0 .316 3.53l5.469 7.81a1.765 1.765 0 0 0 2.457.433l.003-.002a1.763 1.763 0 0 0 .433-2.457l-5.47-7.81ZM24.21 59.879V20.705c0-5.004 1.99-9.804 5.53-13.342a18.858 18.858 0 0 1 13.34-5.526c5.01 0 9.81 1.988 13.34 5.526a18.865 18.865 0 0 1 5.53 13.342v41.674a2.5 2.5 0 0 1-2.5 2.5H29.21v2.295c0 7.785 6.31 14.096 14.1 14.096 0 0 3.53.03 6.17-1.339a2.505 2.505 0 0 1 3.37 1.07 2.51 2.51 0 0 1-1.07 3.37c-3.64 1.884-8.48 1.899-8.47 1.899-10.55 0-19.1-8.55-19.1-19.096v-2.295h-7.5a2.5 2.5 0 0 1 0-5h7.5Zm32.74 0V20.705A13.868 13.868 0 0 0 43.08 6.837a13.868 13.868 0 0 0-13.87 13.868v39.174h27.74ZM40.58 96.836v13.709c0 1.379 1.12 2.5 2.5 2.5s2.5-1.121 2.5-2.5V96.836a2.5 2.5 0 0 0-5 0Z"/>
  <path d="M32.2 113.118h21.75a2.501 2.501 0 0 0 0-5H32.2a2.501 2.501 0 0 0 0 5Zm-4.7-86.527h6.42a2.5 2.5 0 0 0 0-5H27.5a2.5 2.5 0 0 0 0 5Zm0 10h6.42a2.5 2.5 0 0 0 0-5H27.5a2.5 2.5 0 0 0 0 5Zm0 10h6.42a2.5 2.5 0 0 0 0-5H27.5a2.5 2.5 0 0 0 0 5Zm25-20h6.42a2.5 2.5 0 0 0 0-5H52.5a2.5 2.5 0 0 0 0 5Zm0 10h6.42a2.5 2.5 0 0 0 0-5H52.5a2.5 2.5 0 0 0 0 5Zm0 10h6.42a2.5 2.5 0 0 0 0-5H52.5a2.5 2.5 0 0 0 0 5Zm-39.64 6.625v14.467c0 16.56 13.44 29.986 29.996 29.986h.44c3.25 0 6.467-.528 9.497-1.538a2.5 2.5 0 0 0 1.574-3.163 2.5 2.5 0 0 0-3.165-1.58 25.014 25.014 0 0 1-7.906 1.282h-.44c-13.796 0-24.986-11.188-24.986-24.987V53.216a2.5 2.5 0 0 0-2.505-2.5 2.5 2.5 0 0 0-2.506 2.5Z"/>
</svg>